<?xml version="1.0" standalone="no"?>
<!DOCTYPE svg PUBLIC "-//W3C//DTD SVG 20010904//EN"
 "http://www.w3.org/TR/2001/REC-SVG-20010904/DTD/svg10.dtd">
<svg version="1.0" xmlns="http://www.w3.org/2000/svg"
 width="400.000000pt" height="400.000000pt" viewBox="0 0 400.000000 400.000000"
 preserveAspectRatio="xMidYMid meet">
<metadata>
Created by potrace 1.14, written by Peter Selinger 2001-2017
</metadata>
<g transform="translate(0.000000,400.000000) scale(0.100000,-0.100000)"
fill="#000000" stroke="none">
<path d="M1573 3669 c-19 -6 -30 -14 -28 -22 4 -8 -11 -13 -50 -14 -34 -2 -62
-8 -71 -18 -20 -20 -23 -19 -17 5 6 22 -20 29 -33 8 -5 -8 -9 -7 -13 4 -5 14
-13 12 -60 -9 -39 -18 -56 -22 -61 -13 -7 11 -23 -4 -57 -56 -10 -16 -11 -14
-1 9 6 15 9 29 6 32 -3 3 -25 -3 -50 -14 l-46 -19 3 -49 c5 -104 5 -100 16
-80 17 29 29 19 29 -27 0 -26 -6 -48 -15 -56 -8 -7 -15 -9 -15 -4 0 5 -5 2
-10 -6 -8 -12 -11 -11 -16 8 -5 16 -11 21 -23 17 -9 -4 -22 -8 -29 -9 -8 -1
-18 -9 -24 -17 -7 -10 -8 -8 -4 11 3 14 6 30 6 36 0 6 10 16 23 21 l22 11 -24
9 -25 10 28 7 c15 4 31 4 35 2 4 -3 9 20 10 50 l2 56 -28 -21 c-60 -44 -82
-69 -112 -131 -17 -35 -31 -70 -31 -77 0 -7 -4 -21 -10 -31 -5 -9 -16 -52 -24
-94 -9 -43 -25 -96 -36 -118 -26 -52 -25 -57 5 -23 l26 28 -17 -40 c-9 -22
-24 -66 -33 -97 -13 -49 -14 -64 -2 -105 7 -26 14 -106 16 -178 2 -130 21
-241 51 -297 8 -14 14 -32 14 -39 0 -19 46 -130 75 -180 13 -24 25 -52 25 -61
0 -10 5 -18 10 -18 6 0 10 -8 10 -19 0 -10 11 -30 25 -45 14 -15 23 -32 20
-37 -4 -5 -2 -9 3 -9 5 0 15 -12 23 -27 25 -50 63 -107 101 -154 21 -26 38
-51 38 -56 0 -5 13 -22 29 -37 16 -16 35 -41 41 -57 7 -16 16 -29 21 -29 5 0
9 -5 9 -10 0 -6 11 -22 25 -36 14 -14 25 -29 25 -34 0 -5 10 -26 22 -46 18
-31 23 -34 28 -19 8 24 46 -62 54 -125 3 -25 10 -70 15 -100 10 -62 4 -113
-12 -103 -6 3 -7 1 -3 -6 4 -7 2 -34 -4 -62 -9 -36 -23 -61 -53 -89 -46 -45
-45 -45 -82 -26 l-27 14 30 7 c46 10 68 81 71 227 4 175 -25 259 -147 422
-104 139 -138 188 -157 226 -10 19 -21 37 -24 40 -15 11 -131 195 -131 207 0
7 -24 64 -54 126 -30 61 -62 140 -71 175 -18 63 -18 63 -49 56 -109 -23 -163
-71 -231 -202 -30 -60 -64 -117 -75 -127 -10 -9 -122 -70 -247 -134 l-228
-116 -3 -933 -2 -932 270 0 c223 0 270 2 270 14 0 7 -7 19 -15 26 -8 7 -15 19
-15 26 0 8 -12 17 -27 20 -16 4 -31 12 -36 18 -5 7 -12 5 -21 -7 -13 -17 -14
-16 -19 3 -3 13 -13 20 -30 20 -14 0 -32 3 -41 6 -11 4 -16 0 -16 -12 -1 -18
-1 -18 -15 0 -9 11 -20 16 -31 12 -9 -3 -23 -1 -30 5 -11 9 -14 8 -14 -5 0
-12 -9 -16 -35 -16 -19 0 -35 5 -35 10 0 21 -27 9 -38 -17 -10 -24 -11 -18 -8
45 2 40 1 70 -2 68 -7 -8 -29 -46 -46 -83 -8 -18 -18 -33 -21 -33 -9 0 3 35
33 103 20 44 30 56 43 52 10 -3 20 -1 24 4 4 7 -1 8 -11 4 -27 -10 -13 12 32
49 69 57 246 138 574 263 69 27 136 56 149 67 13 10 32 18 42 18 10 0 25 12
34 28 l15 27 -6 -27 c-6 -28 -6 -28 47 -28 69 -1 109 -16 222 -82 80 -48 109
-59 227 -86 74 -17 173 -38 220 -46 116 -22 173 -34 253 -58 73 -21 102 -18
47 5 -30 13 -26 14 81 20 63 3 115 2 117 -3 2 -4 21 -32 43 -61 23 -30 45 -64
49 -76 5 -12 30 -37 55 -55 66 -47 186 -156 210 -189 12 -17 29 -29 42 -29 25
0 26 -2 -84 160 -65 94 -57 166 24 227 54 40 71 63 78 104 4 25 11 36 22 35
16 -1 35 26 48 69 6 19 7 19 16 2 13 -22 -5 -83 -26 -91 -8 -3 -15 -13 -15
-23 0 -10 -9 -31 -20 -48 -38 -57 -23 -67 67 -40 56 17 80 50 67 98 -3 15 -3
27 1 27 4 0 38 -32 75 -70 52 -55 71 -69 85 -64 17 7 17 8 -3 17 -12 6 -22 17
-22 25 0 8 -15 29 -34 47 -30 28 -35 40 -41 97 -4 36 -11 71 -15 78 -10 16
-66 4 -81 -18 -9 -15 -10 -14 -6 5 4 17 1 20 -12 15 -14 -5 -14 -4 1 20 16 24
16 26 -5 37 -16 8 -17 10 -3 6 16 -5 17 -3 6 10 -10 12 -9 16 4 21 9 3 16 9
16 13 0 9 -95 81 -107 81 -6 0 -13 -32 -15 -71 -5 -59 -10 -76 -35 -107 -29
-35 -33 -37 -92 -37 l-62 0 -20 59 c-11 32 -17 66 -13 75 3 9 8 41 10 71 4 67
30 140 50 140 8 0 14 4 14 10 0 5 28 30 63 55 34 24 68 50 76 56 7 7 38 22 69
35 30 12 64 33 76 47 11 13 26 25 31 25 6 1 12 9 14 19 2 10 8 21 13 24 14 9
-13 49 -32 49 -13 0 -13 2 -1 9 12 8 11 14 -5 37 -10 15 -23 34 -29 43 -5 9
-14 19 -18 22 -12 9 4 40 17 32 6 -3 4 2 -5 13 -22 26 -14 86 17 119 13 14 24
32 24 39 0 7 9 25 20 39 11 14 20 34 20 45 0 10 9 31 20 45 27 34 60 26 60
-15 0 -75 65 32 100 164 21 80 -20 240 -66 255 -6 2 -11 -23 -11 -69 -1 -40
-2 -82 -3 -93 0 -11 2 -34 6 -51 9 -48 -16 -88 -65 -103 -38 -11 -41 -14 -41
-49 -1 -20 -9 -54 -19 -75 -17 -37 -21 -39 -69 -42 -38 -3 -57 1 -73 14 -20
16 -21 20 -8 47 10 20 22 29 38 29 28 0 88 52 75 64 -5 5 -18 11 -28 13 -11 1
-21 9 -24 17 -3 9 0 12 10 8 16 -6 38 10 38 26 0 5 -6 7 -14 4 -19 -7 -30 22
-15 39 6 8 26 14 43 14 33 0 122 50 107 60 -21 14 -31 53 -25 98 5 42 1 59
-32 133 -30 67 -93 168 -124 199 -3 3 -11 17 -19 32 -8 16 -24 34 -37 42 -12
8 -32 32 -45 53 -13 21 -31 44 -41 51 -10 7 -18 20 -18 28 0 9 -7 14 -17 12
-12 -2 -17 3 -15 15 3 19 -14 24 -21 5 -2 -7 -7 2 -11 19 -6 24 -3 37 8 49 9
8 16 12 17 7 1 -4 4 3 8 17 4 14 3 31 -2 38 -5 7 -7 28 -4 47 3 19 2 35 -4 35
-5 0 -9 4 -9 10 0 5 7 6 17 3 11 -5 14 -3 8 6 -4 8 -2 17 6 21 10 7 10 11 0
23 -9 11 -9 17 -1 22 8 5 6 13 -6 26 -20 22 -25 69 -8 69 6 0 38 18 70 40 76
52 93 51 128 -5 33 -52 44 -59 21 -14 -20 38 -11 108 19 146 11 15 21 37 22
48 0 11 4 36 9 55 7 31 6 33 -9 21 -14 -12 -16 -11 -16 4 0 13 6 15 30 10 19
-4 30 -3 30 4 0 6 -7 11 -15 11 -8 0 -15 4 -15 10 0 5 -7 7 -16 3 -10 -4 -20
0 -26 10 -5 10 -15 17 -23 17 -9 0 -12 6 -8 15 4 13 -2 15 -40 11 -33 -3 -47
0 -51 10 -3 8 1 14 10 14 11 0 14 6 10 16 -3 9 -6 18 -6 20 0 3 -4 2 -10 -1
-5 -3 -10 1 -10 10 0 14 6 16 28 10 15 -3 34 -13 43 -21 19 -18 35 -19 17 -1
-30 29 -88 57 -119 57 -39 0 -64 13 -55 28 6 10 -24 22 -59 22 -12 0 -27 6
-33 12 -14 14 -122 19 -122 6 0 -4 -17 -7 -37 -6 -37 1 -37 1 -5 5 34 5 44 18
15 20 -10 1 -61 9 -113 18 -89 16 -193 20 -212 9 -5 -3 -39 0 -76 6 -46 8 -85
9 -124 2 -32 -5 -58 -5 -58 0 0 11 -76 9 -117 -3z m247 -9 c-8 -5 -19 -10 -25
-10 -5 0 -3 5 5 10 8 5 20 10 25 10 6 0 3 -5 -5 -10z m208 -45 c-3 -3 -31 -7
-64 -9 -40 -3 -51 -2 -34 4 27 9 106 13 98 5z m377 -5 c3 -5 2 -10 -4 -10 -5
0 -13 5 -16 10 -3 6 -2 10 4 10 5 0 13 -4 16 -10z m-250 -10 c3 -5 2 -10 -4
-10 -5 0 -13 5 -16 10 -3 6 -2 10 4 10 5 0 13 -4 16 -10z m-845 -35 c0 -2 -17
-33 -38 -67 -21 -35 -39 -65 -39 -68 -1 -20 -16 -49 -24 -45 -15 10 -11 111 5
124 12 10 15 7 18 -16 3 -28 3 -28 22 12 11 22 24 46 29 53 9 12 27 17 27 7z
m1210 -89 c0 -2 -7 -9 -15 -16 -13 -11 -14 -10 -9 4 5 14 24 23 24 12z m50
-20 c0 -2 -7 -7 -16 -10 -8 -3 -12 -2 -9 4 6 10 25 14 25 6z m-1490 -157 c14
-24 -1 -25 -29 0 -15 13 -18 20 -9 24 17 6 26 0 38 -24z m-70 -49 c-15 -28
-20 -23 -13 13 4 18 9 25 15 19 6 -6 6 -18 -2 -32z m115 -1115 c-10 -29 -14
-34 -15 -17 0 23 18 67 25 60 2 -2 -2 -22 -10 -43z m1160 5 c3 -5 -1 -10 -10
-10 -9 0 -13 5 -10 10 3 6 8 10 10 10 2 0 7 -4 10 -10z m5 -34 c0 -3 -4 -8
-10 -11 -5 -3 -10 -1 -10 4 0 6 5 11 10 11 6 0 10 -2 10 -4z m42 -68 c-9 -9
-12 -7 -12 12 0 19 3 21 12 12 9 -9 9 -15 0 -24z m-86 -429 c5 -31 4 -40 -5
-35 -6 4 -9 11 -6 15 2 5 -2 21 -9 37 -8 16 -17 45 -20 64 l-7 35 20 -36 c11
-21 24 -56 27 -80z m493 -345 c-6 -7 -8 -22 -4 -34 8 -24 -2 -26 -26 -4 -16
14 -16 18 -3 31 8 9 12 23 8 35 -6 19 -5 19 15 2 15 -13 17 -21 10 -30z
m-1501 -32 c17 -23 21 -48 24 -140 2 -62 4 -112 3 -112 -12 0 -145 59 -134 59
14 1 18 18 24 93 6 75 11 96 28 110 27 24 32 23 55 -10z m-173 -192 c-10 -11
-20 -18 -23 -15 -7 6 18 35 31 35 5 0 2 -9 -8 -20z m-64 -127 c-12 -20 -14
-14 -5 12 4 9 9 14 11 11 3 -2 0 -13 -6 -23z m-38 -98 c-3 -9 -8 -14 -10 -11
-3 3 -2 9 2 15 9 16 15 13 8 -4z m1348 -182 c13 -17 13 -17 -6 -3 -11 8 -22
16 -24 17 -2 2 0 3 6 3 6 0 17 -8 24 -17z m-1821 -569 c0 -8 -5 -12 -10 -9 -6
4 -8 11 -5 16 9 14 15 11 15 -7z"/>
<path d="M2803 3263 c-15 -6 -17 -33 -3 -33 6 0 10 6 10 13 0 8 4 7 10 -3 8
-12 10 -11 10 8 0 22 -4 25 -27 15z"/>
<path d="M2600 2767 c0 -13 44 -26 52 -14 4 6 5 15 2 19 -6 10 -54 6 -54 -5z"/>
<path d="M2660 2720 c13 -9 7 -14 -12 -11 -4 0 -5 -6 -2 -14 5 -13 8 -13 21 0
15 16 10 35 -10 35 -7 0 -6 -4 3 -10z"/>
<path d="M2480 2700 c0 -5 5 -10 10 -10 6 0 10 5 10 10 0 6 -4 10 -10 10 -5 0
-10 -4 -10 -10z"/>
<path d="M2768 2547 c-24 -14 -38 -31 -42 -49 -7 -34 -1 -51 36 -105 26 -39
30 -41 53 -31 14 6 25 15 25 20 0 17 52 29 68 16 13 -11 14 -9 8 17 -4 17 -17
38 -29 47 -12 9 -31 23 -41 31 -24 17 -13 37 20 37 48 0 18 30 -36 36 -14 2
-42 -7 -62 -19z"/>
<path d="M2810 2330 c0 -6 7 -10 15 -10 8 0 15 2 15 4 0 2 -7 6 -15 10 -8 3
-15 1 -15 -4z"/>
<path d="M2914 2322 c-18 -11 -27 -52 -14 -66 8 -11 7 -18 -5 -29 -19 -19 -19
-27 -1 -27 7 0 19 -7 26 -15 17 -21 24 -12 9 12 -8 14 -9 32 -1 69 11 50 6 69
-14 56z"/>
<path d="M3971 2276 c-7 -8 -64 -49 -127 -91 -159 -107 -220 -176 -277 -313
-32 -76 -50 -137 -61 -209 -16 -105 -43 -278 -52 -345 -10 -67 -25 -72 -211
-78 -154 -5 -166 -7 -183 -27 -29 -36 -32 -108 -10 -228 25 -140 101 -448 112
-456 5 -3 59 -11 121 -18 186 -20 235 -30 351 -73 155 -57 168 -66 298 -228
33 -41 62 -77 64 -79 2 -2 4 482 4 1077 0 614 -4 1082 -9 1082 -5 0 -14 -6
-20 -14z"/>
<path d="M2480 240 c0 -20 21 -51 30 -45 6 3 7 0 4 -8 -3 -8 2 -17 12 -21 13
-5 14 -4 6 7 -7 8 -9 17 -5 21 4 4 -5 18 -20 32 -15 14 -27 20 -27 14z"/>
</g>
</svg>
